<svg width="457" height="303" viewBox="0 0 457 303" fill="none" xmlns="http://www.w3.org/2000/svg">
<path d="M111.474 257.379H223.338C285.119 257.379 335.201 208.727 335.201 148.712C335.201 88.6965 285.118 40.0449 223.338 40.0449C161.557 40.0449 111.474 88.6973 111.474 148.712V257.379Z" fill="#F7323F"/>
<path d="M371.157 303H316.025C285.576 303 260.892 279.031 260.892 249.465C260.892 219.898 285.576 195.93 316.025 195.93C346.474 195.93 371.157 219.899 371.157 249.465V303Z" fill="#FFC629"/>
<path d="M292.454 257.38C296.646 257.38 300.044 253.982 300.044 249.789C300.044 245.597 296.646 242.198 292.454 242.198C288.261 242.198 284.863 245.597 284.863 249.789C284.863 253.982 288.261 257.38 292.454 257.38Z" fill="white"/>
<path d="M316.424 257.38C320.616 257.38 324.015 253.982 324.015 249.789C324.015 245.597 320.616 242.198 316.424 242.198C312.232 242.198 308.833 245.597 308.833 249.789C308.833 253.982 312.232 257.38 316.424 257.38Z" fill="white"/>
<path d="M339.596 257.38C343.788 257.38 347.187 253.982 347.187 249.789C347.187 245.597 343.788 242.198 339.596 242.198C335.404 242.198 332.005 245.597 332.005 249.789C332.005 253.982 335.404 257.38 339.596 257.38Z" fill="white"/>
<path fill-rule="evenodd" clip-rule="evenodd" d="M323.85 196.465C321.294 196.113 318.681 195.93 316.025 195.93C285.576 195.93 260.892 219.898 260.892 249.465C260.892 250.011 260.9 250.554 260.917 251.096C288.5 241.542 311.088 221.767 323.85 196.465Z" fill="#F28730"/>
<path d="M182.248 150.513C188.815 150.513 194.138 145.19 194.138 138.623C194.138 132.057 188.815 126.734 182.248 126.734C175.682 126.734 170.359 132.057 170.359 138.623C170.359 145.19 175.682 150.513 182.248 150.513Z" fill="white"/>
<path d="M164.414 174.292C164.414 164.442 172.398 156.458 182.248 156.458C192.098 156.458 200.082 164.442 200.082 174.292H164.414Z" fill="white"/>
<ellipse cx="213.292" cy="180.567" rx="27.7421" ry="28.0724" fill="#F7323F"/>
<path d="M262.832 150.513C256.266 150.513 250.943 145.19 250.943 138.623C250.943 132.057 256.266 126.734 262.832 126.734C269.399 126.734 274.722 132.057 274.722 138.623C274.722 145.19 269.399 150.513 262.832 150.513Z" fill="white"/>
<path d="M280.666 174.292C280.666 164.442 272.681 156.458 262.832 156.458C252.982 156.458 244.998 164.442 244.998 174.292H280.666Z" fill="white"/>
<ellipse rx="27.7421" ry="28.0724" transform="matrix(-1 0 0 1 231.787 180.567)" fill="#F7323F"/>
<path d="M223.531 141.926C232.833 141.926 240.374 134.681 240.374 125.743C240.374 116.806 232.833 109.56 223.531 109.56C214.228 109.56 206.687 116.806 206.687 125.743C206.687 134.681 214.228 141.926 223.531 141.926Z" fill="white"/>
<path d="M198.761 175.613C198.761 161.75 209.851 150.513 223.531 150.513C237.211 150.513 248.3 161.75 248.3 175.613H198.761Z" fill="white"/>
<path d="M432.007 135.902C445.755 135.902 456.9 129.469 456.9 121.533C456.9 113.597 445.755 107.163 432.007 107.163C418.259 107.163 407.113 113.597 407.113 121.533C407.113 129.469 418.259 135.902 432.007 135.902Z" fill="#FFC629"/>
<path d="M432.007 131.112C437.298 131.112 441.587 126.823 441.587 121.532C441.587 116.241 437.298 111.952 432.007 111.952C426.716 111.952 422.427 116.241 422.427 121.532C422.427 126.823 426.716 131.112 432.007 131.112Z" fill="white"/>
<path d="M432.007 126.322C434.653 126.322 436.797 124.178 436.797 121.532C436.797 118.887 434.653 116.742 432.007 116.742C429.362 116.742 427.217 118.887 427.217 121.532C427.217 124.178 429.362 126.322 432.007 126.322Z" fill="#0082CB"/>
<path d="M21.1848 209.438L0.410156 258.378H21.1848V293.336L41.9594 244.395H21.1848V209.438Z" fill="#00AF41"/>
<path d="M86.2796 47.6102C103.775 47.6102 117.957 40.5189 117.957 31.7714C117.957 23.0239 103.775 15.9326 86.2796 15.9326C68.7846 15.9326 54.6021 23.0239 54.6021 31.7714C54.6021 40.5189 68.7846 47.6102 86.2796 47.6102Z" fill="#1158C4"/>
<path d="M117.957 15.9326H54.6021V31.7714H117.957V15.9326Z" fill="#1158C4"/>
<path d="M133.796 15.9325L86.2798 31.7713L38.7634 15.9325L86.2798 0.09375L133.796 15.9325Z" fill="#2B7EFB"/>
</svg>
