<svg width="35" height="35" viewBox="0 0 35 35" fill="none" xmlns="http://www.w3.org/2000/svg">
<circle cx="17.1802" cy="17.1802" r="17.1802" fill="white"/>
<g clip-path="url(#clip0)">
<path d="M22.6894 9.25098H11.0097C9.67549 9.25098 8.58984 10.3366 8.58984 11.6708V23.3506C8.58984 24.6848 9.67549 25.7704 11.0097 25.7704H15.8816V19.9305H13.9458V17.0267H15.8816V15.0586C15.8816 13.4573 17.1842 12.1548 18.7854 12.1548H21.7215V15.0586H18.7854V17.0267H21.7215L21.2375 19.9305H18.7854V25.7704H22.6894C24.0236 25.7704 25.1093 24.6848 25.1093 23.3506V11.6708C25.1093 10.3366 24.0236 9.25098 22.6894 9.25098Z" fill="#2B7EFB"/>
</g>
<defs>
<clipPath id="clip0">
<rect width="16.5194" height="16.5194" fill="white" transform="translate(8.58984 9.25098)"/>
</clipPath>
</defs>
</svg>
