<svg width="35" height="35" viewBox="0 0 35 35" fill="none" xmlns="http://www.w3.org/2000/svg">
<circle cx="17.1802" cy="17.1802" r="17.1802" fill="white"/>
<path d="M16.4981 12.1414C18.9102 12.1414 20.8557 14.0874 20.8557 16.5C20.8557 18.9126 18.9102 20.8586 16.4981 20.8586C14.0861 20.8586 12.1405 18.9126 12.1405 16.5C12.1405 14.0874 14.0861 12.1414 16.4981 12.1414ZM16.4981 19.3336C18.0568 19.3336 19.3311 18.0629 19.3311 16.5C19.3311 14.9371 18.0606 13.6664 16.4981 13.6664C14.9356 13.6664 13.6651 14.9371 13.6651 16.5C13.6651 18.0629 14.9394 19.3336 16.4981 19.3336V19.3336ZM10.9458 11.9631C10.9458 12.5283 11.4009 12.9798 11.9622 12.9798C12.5273 12.9798 12.9786 12.5245 12.9786 11.9631C12.9786 11.4017 12.5235 10.9465 11.9622 10.9465C11.4009 10.9465 10.9458 11.4017 10.9458 11.9631ZM8.05973 12.9949C8.1242 11.6331 8.43519 10.4268 9.43263 9.43295C10.4263 8.43908 11.6323 8.12803 12.9938 8.05975C14.397 7.98008 18.603 7.98008 20.0062 8.05975C21.3639 8.12423 22.5699 8.43529 23.5674 9.42915C24.5648 10.423 24.872 11.6293 24.9403 12.9911C25.0199 14.3947 25.0199 18.6015 24.9403 20.0051C24.8758 21.3669 24.5648 22.5732 23.5674 23.5671C22.5699 24.5609 21.3677 24.872 20.0062 24.9403C18.603 25.0199 14.397 25.0199 12.9938 24.9403C11.6323 24.8758 10.4263 24.5647 9.43263 23.5671C8.43898 22.5732 8.128 21.3669 8.05973 20.0051C7.98009 18.6015 7.98009 14.3985 8.05973 12.9949V12.9949ZM9.87256 21.511C10.1684 22.2545 10.741 22.8273 11.4882 23.127C12.607 23.5708 15.2617 23.4684 16.4981 23.4684C17.7345 23.4684 20.393 23.5671 21.508 23.127C22.2514 22.8311 22.824 22.2583 23.1236 21.511C23.5674 20.392 23.465 17.7366 23.465 16.5C23.465 15.2634 23.5636 12.6042 23.1236 11.489C22.8278 10.7455 22.2552 10.1727 21.508 9.87298C20.3892 9.42915 17.7345 9.53157 16.4981 9.53157C15.2617 9.53157 12.6032 9.43295 11.4882 9.87298C10.7448 10.1689 10.1722 10.7417 9.87256 11.489C9.42883 12.608 9.53123 15.2634 9.53123 16.5C9.53123 17.7366 9.42883 20.3958 9.87256 21.511Z" fill="#2B7EFB"/>
</svg>
