<svg width="36" height="35" viewBox="0 0 36 35" fill="none" xmlns="http://www.w3.org/2000/svg">
<circle cx="18.0601" cy="17.1802" r="17.1802" fill="white"/>
<path d="M25.4109 9.25098H10.7088C10.0244 9.25098 9.46973 9.78435 9.46973 10.4424V24.579C9.46973 25.237 10.0244 25.7704 10.7088 25.7704H25.4109C26.0952 25.7704 26.6499 25.237 26.6499 24.579V10.4424C26.6499 9.78435 26.0952 9.25098 25.4109 9.25098ZM15.5636 21.7373H13.4716V15.6854H15.5636V21.7373ZM14.5177 14.859H14.504C13.802 14.859 13.348 14.3943 13.348 13.8135C13.348 13.2196 13.8159 12.7678 14.5316 12.7678C15.2472 12.7678 15.6876 13.2196 15.7013 13.8135C15.7013 14.3943 15.2472 14.859 14.5177 14.859ZM23.1073 21.7373H21.0154V18.4997C21.0154 17.686 20.7125 17.1311 19.9556 17.1311C19.3777 17.1311 19.0335 17.5054 18.8822 17.8667C18.8269 17.996 18.8134 18.1768 18.8134 18.3576V21.7373H16.7214C16.7214 21.7373 16.7488 16.2531 16.7214 15.6854H18.8134V16.5423C19.0914 16.1299 19.5888 15.5433 20.6988 15.5433C22.0752 15.5433 23.1073 16.4083 23.1073 18.2671V21.7373Z" fill="#2B7EFB"/>
</svg>
