<svg width="35" height="35" viewBox="0 0 35 35" fill="none" xmlns="http://www.w3.org/2000/svg">
<circle cx="17.8199" cy="17.1802" r="17.1802" fill="white"/>
<path d="M27.3245 12.2492C26.6761 12.5336 25.9853 12.7221 25.2651 12.8136C26.006 12.3712 26.5715 11.676 26.8374 10.8381C26.1466 11.25 25.3839 11.5409 24.571 11.7033C23.915 11.0048 22.9802 10.5723 21.9603 10.5723C19.9815 10.5723 18.3885 12.1784 18.3885 14.1473C18.3885 14.4306 18.4125 14.703 18.4713 14.9623C15.5 14.8174 12.8707 13.3933 11.1045 11.2239C10.7961 11.7589 10.6152 12.3712 10.6152 13.0304C10.6152 14.2682 11.2526 15.3655 12.2028 16.0007C11.6286 15.9898 11.0652 15.8231 10.588 15.5605C10.588 15.5714 10.588 15.5856 10.588 15.5997C10.588 17.3366 11.8269 18.7792 13.4515 19.1116C13.1606 19.1911 12.8435 19.2293 12.5144 19.2293C12.2856 19.2293 12.0546 19.2162 11.8378 19.1682C12.3009 20.5836 13.6149 21.6242 15.1774 21.658C13.9614 22.6092 12.4174 23.1824 10.746 23.1824C10.4529 23.1824 10.1717 23.1693 9.89062 23.1333C11.4738 24.1543 13.3502 24.7373 15.3736 24.7373C21.9505 24.7373 25.5462 19.2892 25.5462 14.5668C25.5462 14.4088 25.5408 14.2563 25.5331 14.1048C26.2425 13.6014 26.8385 12.9727 27.3245 12.2492Z" fill="#2B7EFB"/>
</svg>
