<svg width="36" height="35" viewBox="0 0 36 35" fill="none" xmlns="http://www.w3.org/2000/svg">
<circle cx="17.94" cy="17.1802" r="17.1802" fill="white"/>
<path d="M28.0764 12.1863C27.8327 11.2968 27.1185 10.5957 26.2128 10.3562C24.5581 9.91162 17.9394 9.91162 17.9394 9.91162C17.9394 9.91162 11.3209 9.91162 9.66623 10.3393C8.77792 10.5786 8.04629 11.297 7.80263 12.1863C7.36719 13.8109 7.36719 17.1802 7.36719 17.1802C7.36719 17.1802 7.36719 20.5664 7.80263 22.174C8.04655 23.0634 8.7605 23.7645 9.66636 24.004C11.3383 24.4487 17.9396 24.4487 17.9396 24.4487C17.9396 24.4487 24.5581 24.4487 26.2128 24.021C27.1187 23.7816 27.8327 23.0805 28.0767 22.1911C28.512 20.5664 28.512 17.1973 28.512 17.1973C28.512 17.1973 28.5294 13.8109 28.0764 12.1863ZM15.8321 20.2928V14.0676L21.3359 17.1802L15.8321 20.2928Z" fill="#2B7EFB"/>
</svg>
