<svg width="26" height="25" viewBox="0 0 26 25" fill="none" xmlns="http://www.w3.org/2000/svg">
<g clip-path="url(#clip0_3_3955)">
<path d="M25.6459 7.32907C25.5875 6.00461 25.3733 5.09405 25.0665 4.30504C24.75 3.46753 24.263 2.7177 23.625 2.09437C23.0017 1.46134 22.2469 0.969441 21.4191 0.657869C20.6255 0.351054 19.7197 0.136872 18.3953 0.0784762C17.0609 0.0151348 16.6373 0.000488281 13.253 0.000488281C9.86871 0.000488281 9.44511 0.0151348 8.1157 0.0735306C6.79123 0.131926 5.88067 0.346298 5.09186 0.652924C4.25415 0.969441 3.50432 1.45639 2.88099 2.09437C2.24796 2.7177 1.75625 3.47247 1.44449 4.30029C1.13767 5.09405 0.923493 5.99966 0.865097 7.32413C0.801756 8.65848 0.787109 9.08209 0.787109 12.4664C0.787109 15.8507 0.801756 16.2743 0.860152 17.6037C0.918548 18.9282 1.13292 19.8387 1.43974 20.6277C1.75625 21.4652 2.24796 22.2151 2.88099 22.8384C3.50432 23.4714 4.2591 23.9633 5.08691 24.2749C5.88067 24.5817 6.78629 24.7959 8.11094 24.8543C9.44016 24.9129 9.86396 24.9273 13.2483 24.9273C16.6326 24.9273 17.0562 24.9129 18.3856 24.8543C19.71 24.7959 20.6206 24.5817 21.4094 24.2749C23.0846 23.6272 24.4091 22.3028 25.0568 20.6277C25.3634 19.834 25.5778 18.9282 25.6362 17.6037C25.6946 16.2743 25.7092 15.8507 25.7092 12.4664C25.7092 9.08209 25.7043 8.65848 25.6459 7.32907ZM23.4011 17.5063C23.3475 18.7237 23.143 19.3811 22.9726 19.8193C22.5537 20.9052 21.6919 21.7671 20.6059 22.186C20.1677 22.3564 19.5056 22.5609 18.2929 22.6143C16.9782 22.6729 16.5839 22.6874 13.258 22.6874C9.93205 22.6874 9.53279 22.6729 8.22279 22.6143C7.00541 22.5609 6.34803 22.3564 5.90978 22.186C5.36938 21.9862 4.87748 21.6697 4.47822 21.2558C4.06432 20.8516 3.7478 20.3647 3.54807 19.8243C3.37764 19.386 3.17316 18.7237 3.11971 17.5113C3.06112 16.1965 3.04667 15.802 3.04667 12.4761C3.04667 9.15018 3.06112 8.75092 3.11971 7.44111C3.17316 6.22373 3.37764 5.56635 3.54807 5.1281C3.7478 4.58751 4.06432 4.09581 4.48317 3.69636C4.88718 3.28245 5.37413 2.96593 5.91472 2.7664C6.35298 2.59596 7.0153 2.39148 8.22773 2.33784C9.54249 2.27945 9.937 2.2648 13.2627 2.2648C16.5936 2.2648 16.9879 2.27945 18.2979 2.33784C19.5153 2.39148 20.1726 2.59596 20.6109 2.7664C21.1513 2.96593 21.6432 3.28245 22.0424 3.69636C22.4564 4.10056 22.7729 4.58751 22.9726 5.1281C23.143 5.56635 23.3475 6.22849 23.4011 7.44111C23.4595 8.75587 23.4742 9.15018 23.4742 12.4761C23.4742 15.802 23.4595 16.1915 23.4011 17.5063Z" fill="url(#paint0_linear_3_3955)"/>
<path d="M13.253 6.06299C9.71785 6.06299 6.84961 8.93104 6.84961 12.4664C6.84961 16.0017 9.71785 18.8697 13.253 18.8697C16.7883 18.8697 19.6564 16.0017 19.6564 12.4664C19.6564 8.93104 16.7883 6.06299 13.253 6.06299ZM13.253 16.6201C10.9596 16.6201 9.09927 14.76 9.09927 12.4664C9.09927 10.1728 10.9596 8.31265 13.253 8.31265C15.5466 8.31265 17.4067 10.1728 17.4067 12.4664C17.4067 14.76 15.5466 16.6201 13.253 16.6201Z" fill="url(#paint1_linear_3_3955)"/>
<path d="M21.405 5.80984C21.405 6.63537 20.7357 7.30473 19.9099 7.30473C19.0844 7.30473 18.415 6.63537 18.415 5.80984C18.415 4.98412 19.0844 4.31494 19.9099 4.31494C20.7357 4.31494 21.405 4.98412 21.405 5.80984Z" fill="url(#paint2_linear_3_3955)"/>
</g>
<defs>
<linearGradient id="paint0_linear_3_3955" x1="25.6702" y1="0.831387" x2="2.68206" y2="24.9274" gradientUnits="userSpaceOnUse">
<stop/>
<stop offset="0.0001" stop-color="#B93290"/>
<stop offset="0.5" stop-color="#E55258"/>
<stop offset="1" stop-color="#F48F2A"/>
</linearGradient>
<linearGradient id="paint1_linear_3_3955" x1="24.2853" y1="1.9392" x2="2.682" y2="23.8195" gradientUnits="userSpaceOnUse">
<stop stop-color="#D5476B"/>
<stop offset="1" stop-color="#ED7240"/>
</linearGradient>
<linearGradient id="paint2_linear_3_3955" x1="25.3937" y1="1.66226" x2="2.12855" y2="22.9886" gradientUnits="userSpaceOnUse">
<stop stop-color="#C13885"/>
<stop offset="0.479167" stop-color="#E15E54"/>
<stop offset="1" stop-color="#F28730"/>
</linearGradient>
<clipPath id="clip0_3_3955">
<rect width="24.9269" height="24.9269" fill="white" transform="translate(0.743164 0.000488281)"/>
</clipPath>
</defs>
</svg>
