<svg width="68" height="66" viewBox="0 0 68 66" fill="none" xmlns="http://www.w3.org/2000/svg">
<path d="M34.3442 66C52.7721 66 67.7109 51.2254 67.7109 33C67.7109 14.7746 52.7721 0 34.3442 0C15.9163 0 0.977539 14.7746 0.977539 33C0.977539 51.2254 15.9163 66 34.3442 66Z" fill="#FFC629"/>
<path d="M46.3215 33.0692C48.3657 33.0692 50.0228 31.412 50.0228 29.3678C50.0228 27.3237 48.3657 25.6665 46.3215 25.6665C44.2773 25.6665 42.6201 27.3237 42.6201 29.3678C42.6201 31.412 44.2773 33.0692 46.3215 33.0692Z" fill="white"/>
<path d="M40.7695 40.4722C40.7695 37.4059 43.2553 34.9202 46.3216 34.9202C49.3879 34.9202 51.8736 37.4059 51.8736 40.4722H40.7695Z" fill="white"/>
<path d="M21.9299 33.0692C23.9741 33.0692 25.6312 31.412 25.6312 29.3678C25.6312 27.3237 23.9741 25.6665 21.9299 25.6665C19.8857 25.6665 18.2285 27.3237 18.2285 29.3678C18.2285 31.412 19.8857 33.0692 21.9299 33.0692Z" fill="white"/>
<path d="M16.3779 40.4719C16.3779 37.4057 18.8637 34.9199 21.93 34.9199C24.9963 34.9199 27.482 37.4057 27.482 40.4719H16.3779Z" fill="white"/>
<circle cx="31.7775" cy="42.5332" r="8.8" fill="#FFC629"/>
<circle cx="36.9113" cy="41.8" r="8.8" fill="#FFC629"/>
<path d="M34.9509 30.5159C37.8055 30.5159 40.1196 28.2018 40.1196 25.3472C40.1196 22.4926 37.8055 20.1785 34.9509 20.1785C32.0963 20.1785 29.7822 22.4926 29.7822 25.3472C29.7822 28.2018 32.0963 30.5159 34.9509 30.5159Z" fill="white"/>
<path d="M27.1982 40.8527C27.1982 36.5708 30.6694 33.0996 34.9513 33.0996C39.2333 33.0996 42.7043 36.5708 42.7043 40.8527H27.1982Z" fill="white"/>
</svg>
