<svg width="61" height="57" viewBox="0 0 61 57" fill="none" xmlns="http://www.w3.org/2000/svg">
<path d="M30.3093 0.988892C13.825 0.988892 0.461914 14.2387 0.461914 30.5833C0.461914 41.7281 6.67622 51.4324 15.8554 56.4802C17.5115 50.0971 23.355 45.3807 30.3095 45.3807C37.264 45.3807 43.1072 50.0973 44.7635 56.4802C53.9428 51.4326 60.1571 41.7283 60.1571 30.5833C60.1566 14.2389 46.7936 0.988892 30.3093 0.988892ZM30.3093 40.4481C24.8145 40.4481 20.3601 36.0315 20.3601 30.5833C20.3601 25.1351 24.8145 20.7185 30.3093 20.7185C35.804 20.7185 40.2584 25.1351 40.2584 30.5833C40.2584 36.0315 35.804 40.4481 30.3093 40.4481Z" fill="#00AF41"/>
</svg>
