<?xml version="1.0" standalone="no"?>
<!DOCTYPE svg PUBLIC "-//W3C//DTD SVG 20010904//EN"
 "http://www.w3.org/TR/2001/REC-SVG-20010904/DTD/svg10.dtd">
<svg version="1.0" xmlns="http://www.w3.org/2000/svg"
 width="1957.000000pt" height="1957.000000pt" viewBox="0 0 1957.000000 1957.000000"
 preserveAspectRatio="xMidYMid meet">
<metadata>
Created by potrace 1.14, written by Peter Selinger 2001-2017
</metadata>
<g transform="translate(0.000000,1957.000000) scale(0.100000,-0.100000)"
fill="#000000" stroke="none">
<path d="M4217 19564 c-1 -1 -40 -4 -87 -8 -116 -9 -148 -14 -280 -42 -517
-113 -998 -420 -1314 -839 -89 -118 -156 -218 -156 -234 0 -5 -4 -11 -9 -13
-13 -5 -124 -240 -164 -348 -69 -187 -114 -395 -133 -608 -4 -59 -5 -9903 0
-10032 4 -101 14 -269 21 -360 2 -30 7 -89 10 -130 3 -41 8 -91 10 -110 3 -19
9 -75 15 -125 6 -49 12 -106 15 -125 2 -19 7 -55 10 -80 90 -688 303 -1446
590 -2095 50 -114 225 -466 273 -550 9 -16 35 -61 56 -100 120 -215 373 -596
535 -805 36 -47 71 -92 78 -100 16 -22 225 -273 238 -286 5 -6 35 -39 65 -73
94 -107 109 -123 223 -240 62 -62 161 -159 221 -215 61 -55 119 -110 131 -121
83 -79 397 -336 535 -437 498 -366 1077 -693 1595 -900 55 -22 114 -46 130
-53 17 -7 71 -28 120 -45 50 -17 99 -35 110 -40 39 -18 333 -111 440 -140 39
-10 111 -30 160 -43 166 -45 352 -87 570 -127 91 -17 99 -18 175 -30 110 -17
120 -18 175 -25 28 -3 75 -10 105 -15 30 -5 87 -12 125 -15 39 -4 81 -8 95
-10 14 -2 68 -6 120 -10 52 -4 111 -8 130 -10 256 -24 982 -24 1240 0 19 1 73
6 120 9 158 13 284 26 380 41 14 2 50 7 80 10 56 6 75 9 170 25 30 5 71 12 90
15 19 3 60 10 90 16 30 6 66 12 80 15 14 3 66 13 115 24 50 10 101 21 115 24
110 20 420 104 625 169 72 22 135 42 140 43 67 17 514 191 643 250 42 20 93
42 112 51 92 42 380 188 504 257 367 204 855 538 1131 776 33 28 85 73 115 98
214 183 541 503 655 642 18 21 116 135 201 233 14 15 78 96 143 180 196 252
358 488 531 777 118 196 278 510 390 765 12 28 27 64 35 80 27 63 95 232 95
238 0 4 9 26 19 50 47 101 239 711 257 817 3 14 10 43 16 65 13 49 11 44 43
190 15 66 29 131 31 145 4 25 17 90 35 180 20 106 40 262 35 276 -3 9 -1 12 4
9 6 -3 10 1 10 10 0 10 -5 13 -12 9 -9 -5 -9 -2 1 9 7 9 10 17 6 17 -4 0 -2 6
5 14 6 8 11 23 10 33 -1 10 -1 20 0 23 1 4 8 83 12 148 1 12 4 22 8 22 3 0 5
21 6 48 0 26 4 74 8 107 4 33 10 85 12 115 3 30 7 73 8 95 2 22 8 110 12 195
11 198 12 10108 1 10215 -43 441 -199 829 -475 1180 -86 108 -276 292 -393
380 -297 222 -599 351 -982 419 -103 18 -297 21 -1447 21 -1274 0 -1368 -2
-1510 -30 -14 -3 -38 -8 -55 -11 -315 -56 -718 -250 -1000 -484 -123 -101
-321 -321 -416 -460 -195 -288 -339 -660 -374 -970 -3 -30 -9 -73 -12 -95 -3
-22 -7 -2168 -8 -4770 -2 -4271 -5 -4887 -20 -5075 -12 -150 -16 -197 -20
-220 -3 -14 -7 -41 -9 -60 -24 -194 -121 -406 -251 -551 -132 -147 -326 -261
-515 -304 -100 -23 -286 -28 -371 -10 -36 8 -77 16 -90 19 -31 5 -146 49 -190
71 -131 67 -287 204 -367 321 -72 107 -140 264 -158 364 -2 14 -7 36 -9 50 -3
14 -7 43 -11 65 -3 22 -7 51 -10 65 -5 29 -13 132 -20 257 -5 83 -12 4095 -14
8008 -1 1600 -4 1821 -25 1963 -55 364 -201 703 -439 1017 -74 98 -264 291
-366 371 -314 247 -721 421 -1075 459 -33 3 -69 9 -80 13 -17 5 -2541 11
-2548 6z m1576 -2278 c276 -68 481 -227 601 -463 37 -74 74 -192 82 -265 4
-35 8 -2101 9 -4593 1 -2491 5 -4573 9 -4625 4 -52 9 -122 11 -155 11 -155 29
-327 51 -475 2 -19 7 -51 9 -70 3 -19 10 -57 15 -85 5 -27 12 -63 15 -80 49
-300 177 -742 309 -1068 144 -355 328 -686 583 -1052 136 -196 334 -427 544
-635 124 -123 187 -182 290 -270 29 -25 57 -50 63 -55 60 -56 344 -265 489
-359 292 -189 579 -339 887 -462 47 -19 94 -39 105 -44 30 -14 337 -116 435
-144 90 -26 394 -101 445 -111 17 -3 44 -7 60 -10 17 -3 53 -10 80 -15 28 -5
66 -12 85 -15 19 -3 46 -7 60 -10 14 -2 48 -7 75 -10 28 -3 64 -8 80 -10 17
-3 52 -7 79 -10 27 -2 52 -7 55 -11 3 -4 -19 -4 -49 0 -30 3 -77 9 -105 12
-104 12 -404 64 -510 89 -60 15 -114 27 -120 27 -13 1 -162 -13 -184 -17 -136
-26 -993 -26 -1151 -1 -14 3 -54 7 -90 10 -349 30 -819 130 -1195 254 -164 55
-426 154 -450 172 -5 3 -26 13 -45 20 -39 15 -325 156 -381 187 -33 19 -172
101 -214 126 -73 45 -161 103 -163 109 -2 5 -8 8 -14 8 -10 0 -135 87 -248
174 -308 236 -522 437 -819 771 -41 46 -173 213 -217 275 -21 30 -41 57 -45
60 -14 11 -219 331 -279 435 -91 160 -229 448 -295 615 -31 80 -60 154 -65
165 -13 28 -79 237 -102 320 -43 157 -78 292 -84 330 -3 22 -7 43 -10 46 -4 8
-39 181 -48 244 -4 22 -11 65 -16 95 -11 70 -17 110 -26 185 -3 33 -8 68 -10
77 -1 10 -6 59 -9 110 -4 51 -8 100 -10 108 -5 17 -13 161 -20 330 -6 149 -6
8924 0 8968 18 136 57 255 115 353 133 224 325 369 575 434 87 23 101 24 410
21 176 -1 333 -6 348 -10z m8722 -13 c39 -8 75 -16 82 -17 7 -1 16 -5 19 -9 4
-4 14 -7 21 -7 24 0 120 -48 191 -95 181 -120 310 -306 364 -522 l21 -88 1
-4265 c0 -2346 -4 -4362 -8 -4480 -8 -216 -9 -249 -20 -395 -7 -88 -8 -100
-32 -295 -6 -53 -14 -102 -19 -130 -3 -14 -7 -41 -9 -60 -7 -51 -35 -200 -46
-240 -5 -19 -21 -82 -35 -140 -133 -535 -368 -951 -755 -1339 -530 -531 -1254
-875 -1975 -936 -44 -4 -89 -9 -100 -11 -26 -5 -374 -5 -441 0 -90 7 -178 16
-204 21 -14 3 -41 7 -60 10 -19 2 -44 6 -55 8 -11 3 -40 8 -65 12 -135 21
-487 122 -473 136 5 4 51 24 103 44 115 45 276 122 385 183 71 40 253 154 280
174 6 5 54 41 107 81 141 106 206 163 363 321 379 382 604 779 749 1326 25 92
60 251 71 318 3 17 7 47 10 65 22 126 23 133 30 197 3 30 8 66 10 80 2 14 7
59 10 100 3 41 7 91 10 110 4 35 11 145 22 340 3 58 6 2054 7 4435 l3 4330 21
88 c82 335 350 592 679 651 114 21 642 20 738 -1z m-1865 -14886 c0 -2 -10
-12 -22 -23 l-23 -19 19 23 c18 21 26 27 26 19z m-70 -51 c0 -2 -8 -10 -17
-17 -16 -13 -17 -12 -4 4 13 16 21 21 21 13z m-70 -50 c0 -2 -7 -7 -16 -10 -8
-3 -12 -2 -9 4 6 10 25 14 25 6z m-45 -26 c-3 -5 -12 -10 -18 -10 -7 0 -6 4 3
10 19 12 23 12 15 0z m-35 -14 c0 -2 -7 -7 -16 -10 -8 -3 -12 -2 -9 4 6 10 25
14 25 6z m-69 -31 c-18 -8 -38 -15 -45 -15 -15 1 46 28 64 29 8 0 0 -6 -19
-14z m-62 -19 c-11 -9 -99 -34 -99 -27 0 4 17 12 38 18 39 11 68 15 61 9z
m-839 -20 c239 -16 300 -18 446 -19 88 -1 188 2 224 5 53 6 58 5 30 -3 -58
-17 -670 -11 -701 7 -3 1 -33 4 -67 5 -34 1 -62 6 -62 11 0 5 10 6 23 4 12 -3
60 -7 107 -10z"/>
</g>
</svg>
