<svg id="Layer_1" data-name="Layer 1" xmlns="http://www.w3.org/2000/svg" viewBox="0 0 1920 1080"><title>revolgy_Logo_RGB_1</title><path d="M223.42,414H349.8v54.8H291.5V666H223.42Zm362.35,146H425.34c.24,34.74,24,53.86,52.23,53.86,26.82,0,41.51-15.86,50.37-32.64l54.33,31.24L542.4,666H413l-51.3-65.52V479L413,414H534.47L585.77,479ZM521.64,514c-2.09-29.38-20.75-47.8-48-47.8-26.58,0-45.93,18.42-47.8,47.8Zm75.08-100h69l47.8,161.36,48-161.36h69L745.25,666H682.07Zm480.8,125.68L1035.09,666H878.63L836,539.63l42.67-126.38h156.46Zm-74.14,0c0-43.83-13.53-73.91-46.87-73.91s-46.87,30.08-46.87,73.91c0,44.07,13.52,74.15,46.87,74.15S1003.38,583.7,1003.38,539.63ZM1110.63,369h-58.29V314.16h126.38V666h-68.09Zm339.5,45V763.48H1238v-54.8h143.63V638.5L1359.89,666h-87.44l-51.29-65.52V479L1272.45,414h87.44L1389,450.79V414Zm-66.69,125.68c0-43.83-13-73.91-48.73-73.91s-49,30.08-49,73.91c0,44.07,13.29,74.15,49,74.15S1383.44,583.7,1383.44,539.63Zm183.74,124.51L1478.11,414h73.68l47.34,153.9,48.5-153.9h73L1597.26,763.48h-67.15Z"/></svg>